<!-- Generated by IcoMoon.io -->
<svg version="1.1" xmlns="http://www.w3.org/2000/svg" width="541" height="512" viewBox="0 0 541 512">
<g id="icomoon-ignore">
    <line stroke-width="1" x1="16" y1="0" x2="16" y2="512" stroke="#449FDB" opacity="0.3"></line>
    <line stroke-width="1" x1="32" y1="0" x2="32" y2="512" stroke="#449FDB" opacity="1"></line>
    <line stroke-width="1" x1="48" y1="0" x2="48" y2="512" stroke="#449FDB" opacity="0.3"></line>
    <line stroke-width="1" x1="64" y1="0" x2="64" y2="512" stroke="#449FDB" opacity="1"></line>
    <line stroke-width="1" x1="80" y1="0" x2="80" y2="512" stroke="#449FDB" opacity="0.3"></line>
    <line stroke-width="1" x1="96" y1="0" x2="96" y2="512" stroke="#449FDB" opacity="1"></line>
    <line stroke-width="1" x1="112" y1="0" x2="112" y2="512" stroke="#449FDB" opacity="0.3"></line>
    <line stroke-width="1" x1="128" y1="0" x2="128" y2="512" stroke="#449FDB" opacity="1"></line>
    <line stroke-width="1" x1="144" y1="0" x2="144" y2="512" stroke="#449FDB" opacity="0.3"></line>
    <line stroke-width="1" x1="160" y1="0" x2="160" y2="512" stroke="#449FDB" opacity="1"></line>
    <line stroke-width="1" x1="176" y1="0" x2="176" y2="512" stroke="#449FDB" opacity="0.3"></line>
    <line stroke-width="1" x1="192" y1="0" x2="192" y2="512" stroke="#449FDB" opacity="1"></line>
    <line stroke-width="1" x1="208" y1="0" x2="208" y2="512" stroke="#449FDB" opacity="0.3"></line>
    <line stroke-width="1" x1="224" y1="0" x2="224" y2="512" stroke="#449FDB" opacity="1"></line>
    <line stroke-width="1" x1="240" y1="0" x2="240" y2="512" stroke="#449FDB" opacity="0.3"></line>
    <line stroke-width="1" x1="256" y1="0" x2="256" y2="512" stroke="#449FDB" opacity="1"></line>
    <line stroke-width="1" x1="272" y1="0" x2="272" y2="512" stroke="#449FDB" opacity="0.3"></line>
    <line stroke-width="1" x1="288" y1="0" x2="288" y2="512" stroke="#449FDB" opacity="1"></line>
    <line stroke-width="1" x1="304" y1="0" x2="304" y2="512" stroke="#449FDB" opacity="0.3"></line>
    <line stroke-width="1" x1="320" y1="0" x2="320" y2="512" stroke="#449FDB" opacity="1"></line>
    <line stroke-width="1" x1="336" y1="0" x2="336" y2="512" stroke="#449FDB" opacity="0.3"></line>
    <line stroke-width="1" x1="352" y1="0" x2="352" y2="512" stroke="#449FDB" opacity="1"></line>
    <line stroke-width="1" x1="368" y1="0" x2="368" y2="512" stroke="#449FDB" opacity="0.3"></line>
    <line stroke-width="1" x1="384" y1="0" x2="384" y2="512" stroke="#449FDB" opacity="1"></line>
    <line stroke-width="1" x1="400" y1="0" x2="400" y2="512" stroke="#449FDB" opacity="0.3"></line>
    <line stroke-width="1" x1="416" y1="0" x2="416" y2="512" stroke="#449FDB" opacity="1"></line>
    <line stroke-width="1" x1="432" y1="0" x2="432" y2="512" stroke="#449FDB" opacity="0.3"></line>
    <line stroke-width="1" x1="448" y1="0" x2="448" y2="512" stroke="#449FDB" opacity="1"></line>
    <line stroke-width="1" x1="464" y1="0" x2="464" y2="512" stroke="#449FDB" opacity="0.3"></line>
    <line stroke-width="1" x1="480" y1="0" x2="480" y2="512" stroke="#449FDB" opacity="1"></line>
    <line stroke-width="1" x1="496" y1="0" x2="496" y2="512" stroke="#449FDB" opacity="0.3"></line>
    <line stroke-width="1" x1="512" y1="0" x2="512" y2="512" stroke="#449FDB" opacity="1"></line>
    <line stroke-width="1" x1="528" y1="0" x2="528" y2="512" stroke="#449FDB" opacity="0.3"></line>
    <line stroke-width="1" x1="0" y1="16" x2="541" y2="16" stroke="#449FDB" opacity="0.3"></line>
    <line stroke-width="1" x1="0" y1="32" x2="541" y2="32" stroke="#449FDB" opacity="1"></line>
    <line stroke-width="1" x1="0" y1="48" x2="541" y2="48" stroke="#449FDB" opacity="0.3"></line>
    <line stroke-width="1" x1="0" y1="64" x2="541" y2="64" stroke="#449FDB" opacity="1"></line>
    <line stroke-width="1" x1="0" y1="80" x2="541" y2="80" stroke="#449FDB" opacity="0.3"></line>
    <line stroke-width="1" x1="0" y1="96" x2="541" y2="96" stroke="#449FDB" opacity="1"></line>
    <line stroke-width="1" x1="0" y1="112" x2="541" y2="112" stroke="#449FDB" opacity="0.3"></line>
    <line stroke-width="1" x1="0" y1="128" x2="541" y2="128" stroke="#449FDB" opacity="1"></line>
    <line stroke-width="1" x1="0" y1="144" x2="541" y2="144" stroke="#449FDB" opacity="0.3"></line>
    <line stroke-width="1" x1="0" y1="160" x2="541" y2="160" stroke="#449FDB" opacity="1"></line>
    <line stroke-width="1" x1="0" y1="176" x2="541" y2="176" stroke="#449FDB" opacity="0.3"></line>
    <line stroke-width="1" x1="0" y1="192" x2="541" y2="192" stroke="#449FDB" opacity="1"></line>
    <line stroke-width="1" x1="0" y1="208" x2="541" y2="208" stroke="#449FDB" opacity="0.3"></line>
    <line stroke-width="1" x1="0" y1="224" x2="541" y2="224" stroke="#449FDB" opacity="1"></line>
    <line stroke-width="1" x1="0" y1="240" x2="541" y2="240" stroke="#449FDB" opacity="0.3"></line>
    <line stroke-width="1" x1="0" y1="256" x2="541" y2="256" stroke="#449FDB" opacity="1"></line>
    <line stroke-width="1" x1="0" y1="272" x2="541" y2="272" stroke="#449FDB" opacity="0.3"></line>
    <line stroke-width="1" x1="0" y1="288" x2="541" y2="288" stroke="#449FDB" opacity="1"></line>
    <line stroke-width="1" x1="0" y1="304" x2="541" y2="304" stroke="#449FDB" opacity="0.3"></line>
    <line stroke-width="1" x1="0" y1="320" x2="541" y2="320" stroke="#449FDB" opacity="1"></line>
    <line stroke-width="1" x1="0" y1="336" x2="541" y2="336" stroke="#449FDB" opacity="0.3"></line>
    <line stroke-width="1" x1="0" y1="352" x2="541" y2="352" stroke="#449FDB" opacity="1"></line>
    <line stroke-width="1" x1="0" y1="368" x2="541" y2="368" stroke="#449FDB" opacity="0.3"></line>
    <line stroke-width="1" x1="0" y1="384" x2="541" y2="384" stroke="#449FDB" opacity="1"></line>
    <line stroke-width="1" x1="0" y1="400" x2="541" y2="400" stroke="#449FDB" opacity="0.3"></line>
    <line stroke-width="1" x1="0" y1="416" x2="541" y2="416" stroke="#449FDB" opacity="1"></line>
    <line stroke-width="1" x1="0" y1="432" x2="541" y2="432" stroke="#449FDB" opacity="0.3"></line>
    <line stroke-width="1" x1="0" y1="448" x2="541" y2="448" stroke="#449FDB" opacity="1"></line>
    <line stroke-width="1" x1="0" y1="464" x2="541" y2="464" stroke="#449FDB" opacity="0.3"></line>
    <line stroke-width="1" x1="0" y1="480" x2="541" y2="480" stroke="#449FDB" opacity="1"></line>
    <line stroke-width="1" x1="0" y1="496" x2="541" y2="496" stroke="#449FDB" opacity="0.3"></line>
</g>
<path fill="#008000" d="M232.494 13.676c0.846 0.282 1.692 0.564 2.565 0.855 0.908 1.99 0.908 1.99 1.709 4.487 1.624 5.006 3.405 8.489 7.373 11.966 4.082 4.45 3.635 9.681 3.679 15.403-0.1 3.135-0.1 3.135 0.915 5.753 0.709 0.475 1.419 0.95 2.15 1.439 2.481 2.313 2.644 3.691 2.762 7.017 0.001 0.612 0.002 1.224 0.004 1.855 0.051 4.741 0.051 4.741 1.069 9.349 0.793 0.317 1.587 0.635 2.404 0.962 3.423 2.013 4.038 3.844 5.409 7.453 0.741 2.045 0.741 2.045 2.444 4.407 0.257 2.354 0.435 4.638 0.534 6.999 0.033 0.641 0.066 1.281 0.1 1.942 0.080 1.579 0.151 3.157 0.221 4.736 1.974 0.663 1.974 0.663 4.274 0.855 1.755-0.979 1.755-0.979 3.259-2.564 0.579-0.547 1.157-1.095 1.753-1.659 0.603-0.581 1.205-1.162 1.827-1.76 1.276-1.129 2.558-2.251 3.846-3.365 0.573-0.501 1.146-1.002 1.736-1.519 0.622-0.544 0.622-0.544 1.255-1.099 2.27 1.966 3.074 3.597 3.9 6.464 0.889 3.069 0.889 3.069 2.938 5.502 0.127 1.644 0.127 1.644 0.017 3.629-0.037 1.073-0.037 1.073-0.075 2.168-0.068 1.51-0.146 3.019-0.233 4.528-0.062 2.049-0.094 3.9 0.292 5.915 2.066 1.532 2.066 1.532 4.274 2.564 0.447 2.247 0.447 2.247 0.32 4.755-0.029 0.829-0.058 1.659-0.087 2.514-0.233 2.133-0.233 2.133-1.089 3.843-0.2 3.767-0.195 7.537-0.205 11.309-0.009 1.876-0.035 3.751-0.062 5.627-0.005 1.191-0.010 2.383-0.014 3.575-0.012 1.629-0.012 1.629-0.024 3.291 0.065 2.689 0.065 2.689 1.604 4.352 0.418 0.299 0.834 0.6 1.264 0.908 5.877-1.45 11.806-2.945 17.095-5.983 1.485-2.969 1.101-6.613 1.147-9.906 0.072-1.713 0.072-1.713 0.563-4.625 1.746-1.256 1.746-1.256 3.419-1.709 1.315 1.315 1.309 2.778 1.656 4.588 0.147 0.757 0.296 1.514 0.447 2.294 0.152 0.797 0.304 1.594 0.461 2.414 0.301 1.565 0.604 3.13 0.908 4.695 0.134 0.697 0.267 1.394 0.404 2.113 0.392 1.988 0.392 1.988 1.252 4.411 0.223 3.089 0.378 6.173 0.517 9.266 0.14 2.785 0.305 5.171 1.192 7.829 0.221 2.746 0.378 5.488 0.517 8.238 0.138 3.254 0.138 3.254 1.192 6.292 1.688 0.896 3.397 1.754 5.128 2.565 1.039 7.275-1.913 12.168-5.259 18.398-1.9 3.575-2.541 5.918-2.517 9.9 0.004 1.26 0.004 1.26 0.009 2.546 0.007 0.875 0.014 1.751 0.022 2.653 0.006 1.328 0.006 1.328 0.012 2.683 0.010 2.186 0.024 4.373 0.041 6.56 7.889-2.957 11.921-10.446 16.347-17.275 1.685-2.506 3.507-4.734 5.519-6.978 1.755-2.011 3.298-4.162 4.878-6.31 2.358-3.090 4.887-6.039 7.402-9.001 1.854-2.294 1.854-2.294 3.105-5.115 1.212-2.331 1.212-2.331 3.776-3.185 2.981 1.677 4.44 3.829 5.983 6.838 0 0.564 0 1.129 0 1.709 0.846 0 1.692 0 2.565 0 1.667-4.287 2.267-8.538 2.855-13.072 0.61-2.502 1.103-3.349 3.128-4.878 0.864-0.405 1.728-0.811 2.618-1.228 2.762-1.469 3.119-1.961 4.221-4.755 0.223-1.26 0.418-2.525 0.587-3.793 0.711-3.566 0.711-3.566 2.501-5.018 0.532-0.301 1.065-0.601 1.613-0.911 2.336-1.364 2.899-1.962 3.763-4.591 0.411-2.353 0.734-4.676 0.938-7.055 2.832-0.588 2.832-0.588 5.983-0.855 1.656 1.122 1.656 1.122 2.565 2.565 0 0.564 0 1.129 0 1.709 2.508-0.228 2.508-0.228 5.128-0.855 1.827-2.739 1.912-3.577 2.040-6.738 0.431-5.705 2-10.821 3.783-16.233 0.293-0.941 0.587-1.882 0.89-2.852 2.349-7.265 4.771-10.983 11.237-15.206 3.988-3.633 5.125-5.804 5.396-11.112 0.676-7.626 2.637-14.262 8.514-19.439 2.058-1.499 3.171-2.195 5.75-1.93 2.671 1.977 2.671 1.977 5.128 4.274 0.846 0.564 1.692 1.129 2.565 1.71 0.423 4.329-0.372 7.763-1.709 11.86-1.45 4.862-2.372 8.733-1.709 13.783 0.572 0.407 1.144 0.816 1.733 1.236 1.686 1.329 1.686 1.329 1.93 3.209-0.063 0.702-0.125 1.403-0.19 2.127-0.149 3.125 0.019 5.174 1.336 8.014 1.488 3.431 0.916 5.671-0.046 9.198-0.719 2.745-0.88 5.035-0.488 7.843 2.028 1.717 2.028 1.717 4.274 2.565-0.137 0.791-0.276 1.582-0.418 2.398-0.619 4.355-0.594 8.704-0.598 13.095-0.010 0.834-0.021 1.668-0.031 2.528-0.002 0.808-0.003 1.615-0.005 2.447-0.005 1.091-0.005 1.091-0.010 2.204 0.233 2.381 0.938 4.219 1.917 6.39 3.351 0.311 4.699 0.33 7.425-1.763 0.652-0.547 1.305-1.093 1.976-1.656 0.846 0.282 1.692 0.564 2.565 0.855 0.232 4.096-0.040 7.337-1.228 11.272-1.354 4.553-1.769 8.913-2.010 13.646-0.18 2.434-0.18 2.434-0.613 4.030-0.481 2.083-0.518 3.946-0.505 6.084 0.003 0.799 0.005 1.597 0.009 2.421 0.007 0.827 0.014 1.655 0.022 2.507 0.006 1.261 0.006 1.261 0.012 2.548 0.010 2.071 0.024 4.143 0.041 6.214 0.793-0.036 1.587-0.071 2.404-0.107 2.724 0.107 2.724 0.107 5.289 1.816 2.087 0.256 2.087 0.256 4.274-0.855 1.413-1.637 2.633-3.357 3.873-5.129 2.825-3.847 6.461-5.639 10.658-7.693 0.793-0.714 0.793-0.714 1.603-1.442 1.817-1.122 1.817-1.122 4.915-0.802 3.62 0.121 5.345-1.214 8.067-3.526 3.884-3.764 6.501-7.846 9.028-12.605 1.176-2.14 1.176-2.14 2.885-3.85 3.022 0.458 3.022 0.458 4.274 1.709 1.298 0.061 2.6 0.071 3.9 0.054 0.707-0.007 1.413-0.016 2.14-0.024 0.545-0.010 1.091-0.020 1.653-0.030 1.693 3.386 1.21 7.422 0.855 11.112-1.673 3.974-4.058 6.778-6.784 10.097-5.004 6.163-8.585 11.711-7.746 19.82 0.175 0.564 0.351 1.129 0.531 1.709 0.6 3.165-1.568 5.87-3.095 8.547-0.575 1.041-0.575 1.041-1.162 2.103-2.484 4.339-5.207 8.052-8.584 11.733-1.829 2.075-3.264 4.371-4.784 6.678-0.635 0.599-1.269 1.199-1.923 1.817-1.885 1.654-1.885 1.654-1.496 5.022 0.758 0.070 1.516 0.141 2.297 0.214 3.184 0.721 4.72 1.885 7.105 4.060-0.267 3.113-0.611 4.065-3.045 6.144-2.264 2.106-2.264 2.106-2.154 4.243 0.058 0.697 0.117 1.395 0.177 2.113 0.327 5.083-1.873 7.875-4.865 11.823-1.438 2.072-1.438 2.072-1.035 4.32 0.219 0.702 0.438 1.404 0.664 2.127 0.647 2.193 0.647 2.193 0.855 4.274-1.075 1.733-1.075 1.733-2.671 3.365-0.55 0.585-1.099 1.17-1.666 1.773-0.815 0.841-0.815 0.841-1.646 1.7-3.495 3.627-3.495 3.627-4.274 8.548 0.988-0.123 0.988-0.123 1.997-0.247 0.857-0.095 1.714-0.19 2.598-0.287 0.853-0.099 1.705-0.199 2.584-0.3 0.734-0.007 1.467-0.013 2.224-0.020 0.564 0.564 1.128 1.128 1.709 1.709-0.13 2.124-0.395 3.923-0.855 5.983-0.195 0.967-0.195 0.967-0.394 1.954-0.255 0.99-0.255 0.99-0.514 2-0.151 0.611-0.302 1.221-0.457 1.849-3.471 5.471-11.886 8.242-17.511 11.105-0.616 0.32-1.233 0.639-1.868 0.969-0.827 0.423-0.827 0.423-1.672 0.853-2.74 1.68-3.911 2.983-4.935 6.058-0.13 1.565-0.234 3.133-0.32 4.701-1.017 12.692-1.017 12.692-4.915 16.935-1.216 0.714-1.216 0.714-2.457 1.442-1.051 0.728-2.102 1.459-3.152 2.19-6.002 3.964-12.192 7.641-18.345 11.365-2.929 1.808-4.268 2.665-5.375 5.89-2.738 5.802-9.159 7.539-14.828 9.646-1.758 0.599-3.534 1.146-5.312 1.68 0 0.564 0 1.128 0 1.709 1.676 1.188 3.387 2.33 5.128 3.419-0.564 0.846-1.128 1.692-1.709 2.565-2.635 0.347-2.635 0.347-5.823 0.428-4.431 0.112-6.694 0.688-10.418 2.991-2.637 0.414-2.637 0.414-5.449 0.641-4.935 0.659-7.344 1.784-10.551 5.556-0.849 1.16-1.673 2.339-2.484 3.526-1.64 1.939-2.966 1.873-5.449 2.243-3.221 0.183-6.443 0.158-9.669 0.161-0.861 0.010-1.722 0.021-2.61 0.031-11.741 0.023-11.741 0.023-16.359-3.565-0.58-0.615-1.161-1.229-1.76-1.863-3.106-3.035-3.106-3.035-7.212-3.793-2.455 0.211-2.455 0.211-3.419 1.336-0.195 3.257-0.045 5.827 0.855 8.975 0.912 3.192 1.173 5.673 0.855 8.975-1.068 1.496-1.068 1.496-2.565 2.565-0.546 0.493-1.093 0.987-1.656 1.496-1.763 1.068-1.763 1.068-3.473 1.068-3.986-1.993-5.404-5.73-7.105-9.616-0.991-2.236-0.991-2.236-2.297-4.060-3.129-1.113-3.129-1.113-5.983-0.855-0.115 0.56-0.231 1.12-0.351 1.696-3.664 15.534-15.441 28.57-28.818 36.981-0.721 0.406-1.443 0.813-2.187 1.232-2.010 1.136-3.748 2.415-5.56 3.843-4.033 3.076-7.89 5.537-12.981 6.197-0.74-0.123-1.481-0.247-2.243-0.374-1.963-2.944-2.171-5.075-2.565-8.548-1.914-0.812-1.914-0.812-4.274-0.855-1.457 1.392-2.875 2.823-4.274 4.274-1.702 1.367-3.43 2.702-5.182 4.007-0.874 0.656-1.748 1.311-2.648 1.986-3.753 2.627-5.63 3.604-10.227 3.248-4.611-0.091-7.361 1.027-11.329 3.255-4.933 2.595-10.329 4.598-15.917 4.598-0.846-1.692-1.692-3.385-2.565-5.128-2.364 0.329-3.929 0.582-5.823 2.084-3.378 2.413-7.175 3.236-11.272 2.724-0.564-0.176-1.129-0.353-1.709-0.534-0.282-1.128-0.564-2.257-0.855-3.419-3.081-0.025-6.161-0.040-9.242-0.053-0.875-0.007-1.751-0.014-2.653-0.022-0.84-0.003-1.68-0.005-2.546-0.009-0.774-0.005-1.549-0.009-2.346-0.014-2.148 0.012-2.148 0.012-4.582 0.952-1.992 0.125-3.988 0.188-5.983 0.214-1.058 0.022-2.115 0.044-3.206 0.067-2.778-0.281-2.778-0.281-4.434-1.576-0.299-0.418-0.6-0.837-0.908-1.269 1.083-3.248 1.987-3.315 4.969-4.808 4.224-2.394 5.531-4.416 7.125-8.901 1.045-2.406 2.757-2.981 5.001-4.24 1.113-1.591 1.113-1.591 2.137-3.419 1.768-3.042 3.285-4.3 6.411-5.983 0.476-0.635 0.952-1.269 1.442-1.923 2.489-2.961 5.369-4.761 8.607-6.841 2-1.557 2.796-2.543 3.626-4.911 0.065-2.604 0.065-2.604-0.855-5.128-1.921-1.837-1.921-1.837-4.274-3.419-0.613-0.694-1.227-1.389-1.86-2.103-2.948-2.651-5.43-3.392-9.198-4.361-4.577-1.209-8.249-2.472-12.020-5.502-0.895-1.68-0.895-1.68-1.496-3.365-1.618-2.901-3.255-3.793-6.317-4.774-2.72-0.764-5.459-1.402-8.214-2.026-3.019-0.721-5.442-1.534-7.906-3.509-0.648-1.626-0.648-1.626-0.962-3.365-0.506-1.866-0.506-1.866-1.602-3.473-2.316-1.183-4.607-1.889-7.099-2.631-3.067-1.049-4.957-2.991-7.433-5.062-1.55-0.681-3.12-1.317-4.701-1.923-8.733-3.447-16.635-8.796-23.506-15.172-1.156-0.999-2.314-1.996-3.472-2.991-1.124-0.995-2.246-1.992-3.365-2.991-0.529-0.462-1.058-0.923-1.603-1.399-1.442-1.325-1.442-1.325-3.526-3.729 0.116-2.361 0.65-3.218 2.341-4.875 2.221-1.274 3.83-1.5 6.367-1.75 5.359-0.862 8.978-3.082 12.661-7.052 1.398-2.745 1.398-2.745 1.71-5.128-2.689-2.993-5.491-4.686-9.028-6.571-5.618-3.118-11.566-6.436-15.76-11.379-0.846-3.705-1.001-6.587 0-10.257-1.137-0.291-1.137-0.291-2.297-0.587-3.284-1.301-4.677-2.852-7.105-5.396-1.132-0.795-2.272-1.577-3.419-2.351-3.318-2.412-4.969-4.975-6.748-8.635-0.903-1.911-0.903-1.911-2.398-3.62-0.55-0.81-0.55-0.81-1.112-1.636 0.282-0.846 0.564-1.692 0.855-2.565 0.705-0.264 1.41-0.529 2.137-0.801 0.705-0.3 1.41-0.599 2.137-0.908 0.758-1.745 0.758-1.745 0.855-3.419-0.811-0.123-1.622-0.247-2.458-0.374-7.246-2.068-13.694-9.956-18.057-15.866-2.047-3.882-2.992-7.575-3.656-11.87-0.809-2.366-2.28-3.472-4.036-5.226-0.812-1.97-0.812-1.97-1.443-4.167-2.348-6.976-6.572-13.389-11.202-19.089-1.032-1.532-1.032-1.532-0.818-4.31-0.314-4.712-2.982-6.793-6.197-10.043-3.41-3.703-5.549-7.958-6.838-12.821 0.337-1.974 0.337-1.974 0.855-3.419 3.963 0.435 6.403 1.426 9.669 3.686 5.449 3.601 10.622 6.089 16.935 7.746 3.099 0.856 4.807 1.772 7.052 4.060 2.654 2.578 4.461 2.722 8.12 2.778 4.398 0.115 6.275 0.964 9.456 4.006 0.572 0.627 1.144 1.254 1.733 1.9 1.655 1.658 1.655 1.658 3.997 1.783 2.168-0.125 2.168-0.125 3.566-2.026 0.502-0.846 0.502-0.846 1.015-1.709 4.538 0.698 7.864 3.625 11.112 6.678 2.418 2.168 2.418 2.168 5.395 1.763 2.204-0.525 2.204-0.525 3.152-1.602 3.338-0.307 5.168 0.232 7.966 2.026 0.669 0.421 1.338 0.84 2.026 1.274 0.686 0.445 1.373 0.889 2.080 1.347 1.372 0.874 2.745 1.745 4.12 2.614 0.604 0.389 1.208 0.779 1.83 1.18 2.832 1.662 5.203 1.951 8.421 1.975 0.731 0.012 1.461 0.024 2.213 0.036 2.251-0.21 3.56-0.856 5.532-1.906 5.056 0 8.357 2.733 11.966 5.983 0.788 0.925 1.557 1.868 2.297 2.832 1.73 2.375 1.73 2.375 3.9 3.045 2.234 0.139 2.234 0.139 4 0.024 8.117-0.332 15.936 2.704 22.284 7.777 0.582 0.793 1.163 1.587 1.763 2.404 1.596 2.236 1.596 2.236 4.862 2.137 0.917-0.088 1.833-0.176 2.778-0.267-0.251-5.649-1.004-9.552-5.129-13.676-0.085-1.512-0.111-3.027-0.107-4.541-0.002-0.826-0.005-1.65-0.006-2.501 0.101-2.089 0.423-3.776 0.969-5.78 0.571-6.859-1.175-12.95-2.929-19.507-2.13-8.090-4.017-16.227-5.281-24.499-0.223-1.421-0.488-2.836-0.798-4.24-0.452-2.504-0.538-4.875-0.554-7.419-0.012-0.883-0.024-1.768-0.036-2.678 0.197-2.344 0.197-2.344 1.906-4.908 3.779 0.42 7.448 0.96 11.166 1.763 3.496 0.73 6.641 0.957 10.203 0.802 1.528-2.593 1.88-4.137 1.442-7.105-0.088-0.673-0.177-1.346-0.267-2.040-0.277-1.7-0.638-3.385-1.015-5.065-0.161-2.885-0.161-2.885 1.632-5.646 1.601-2.665 1.639-3.12 1.212-6.438-0.341-1.125-0.703-2.243-1.082-3.356-1.827-6.185-3.538-12.893-1.262-19.192 1.048-1.59 1.048-1.59 2.797-2.711 1.839-1.297 1.839-1.297 2.097-3.365 0.001-0.737 0.003-1.472 0.005-2.231 0.016-0.813 0.032-1.626 0.048-2.464 0.001-1.272 0.001-1.272 0.001-2.571 0.027-5.814 0.083-10.438 2.938-15.6 1.549-0.962 1.549-0.962 3.419-0.855 1.717 0.84 3.426 1.695 5.129 2.564 2.352 0.216 2.352 0.216 4.274 0 1.175-2.35 0.952-4.375 1.015-6.999 0.458-6.496 2.606-8.855 7.207-13.076 3.495-3.558 4.257-6.084 4.25-11.025-0.025-0.738-0.050-1.477-0.077-2.237-0.261-7.582-0.261-7.582 1.577-10.163 0.933-0.97 1.872-1.934 2.817-2.89 2.065-2.63 1.776-5.419 1.696-8.637 0.097-7.709 0.097-7.709 2.083-11.166 2.702-4.898 1.863-10.606 1.693-16.023-0.036-3.262-0.036-3.262 0.818-4.971z"></path>
<path fill="#000" d="M468.408 218.818c2.538 0.423 2.538 0.423 5.128 0.855-1.381 1.744-2.808 3.454-4.274 5.129-0.564 0-1.128 0-1.709 0 0.282-1.975 0.564-3.949 0.855-5.983z"></path>
<path fill="#000" d="M450.457 104.281c0.282 0 0.564 0 0.855 0 0.31 1.245 0.611 2.492 0.908 3.74 0.253 1.041 0.253 1.041 0.511 2.103 0.291 1.85 0.291 1.85-0.565 3.559-0.564 0-1.128 0-1.709 0 0-3.103 0-6.206 0-9.403z"></path>
</svg>
