<?xml version="1.0" encoding="UTF-8"?>
<svg id="_Слой_2" data-name="Слой 2" xmlns="http://www.w3.org/2000/svg" viewBox="0 0 593.58 661.16">
  <defs>
    <style>
      .cls-1 {
        fill: #7bbc5a;
        fill-rule: evenodd;
      }
    </style>
  </defs>
  <g id="_Слой_1-2" data-name="Слой 1">
    <path class="cls-1" d="M578.45,246.61c-12.84-15.95,22.72-24.15,13.62-51.79l-5.78,6.93c-1.68-3.21-3.33-6.41-5.32-9.39-7.58,10.3-15.46,20.21-23.3,30.16l-2.2-2.74,2.75-2.21-3.35-4.13c-2.69,3.99-5.87,7.92-9.07,11.83l-3.32-4.1c-4.67,6.01-9.62,12.29-14.53,18.54l-2.29-2.79,2.79-2.22-3.33-4.12c-2.75,3.93-5.6,7.87-8.48,11.84l4.16-40.69c1.69-8.45,3.5-16.58,5.29-24.72-3.95,0-9.54,6.01-14.49,7.05l-1.09-5.25-4.21,1.72c1.75-4.92,3.53-9.52,5.3-14.14h-5.3c1.75-6.69,3.53-13.07,5.3-19.41h-5.3v3.54h-3.58c1.77-7.78,3.58-15.55,5.33-22.96h-5.33c1.07-4.98,2.14-9.9,3.58-14.5h-5.33v3.53h-3.56c2.84-12.35,5.63-24.71,8.88-37.08-3.58.35-7.09,1.05-10.64,1.77.38-3.19,1.09-6.03,1.76-8.85-27.21,10.23-11.27,43.12-31.77,43.12-7.44,16.25-10.62,26.16-12.37,45.59q-3.55,0-8.83-8.13c-2.51.33-4.96.7-7.07,1.07-.72,4.58-1.43,9.18-1.74,14.12h-7.08c-1.4,5.65-2.51,11.65-3.58,17.64h-8.8c-1.44,7.45-2.47,15.22-3.55,23.01h-3.54c-1.04-3.55-2.11-7.1-2.83-10.61l-5.98-1.78c-9.91,20.85-37.81,42.74-40.99,61.81h-3.53c-6.35-31.78,11.29-39.55,11.29-56.53-3.15-.69-6.37-1.39-9.52-1.76,0-6.69.34-13.07.71-19.44l-4.23,1.78c4.23-18.35-2.1-27.54-2.88-42.41l-4.2-1.75c-.76,7.05-1.48,14.14-1.81,21.22-5.27.65-19.39,7.77-22.95,7.77q-1.07-13.08,1.77-48.43h-7.09q2.5-7.43,2.5-18.02l-4.25-1.76q-1.05-14.16-3.5-15.21c-8.48,6.72-12.41,16.28-22.97,18.72.33-7.06,1.03-14.11,1.75-21.18h-5.31v-11.68c-3.18.36-6.01.73-8.83,1.08.34-7.8,1.09-15.56,1.77-23h-7.04c-.74-7.04-1.44-13.76-1.83-20.49-10.89-6.69-11.31-18.7-14.09-27.17h-3.56v26.5h-3.52v24.73h-7.09v24.73c-2.46-.73-4.95-1.42-7.36-1.77v10.58h-5.33v19.46c-5.32-2.51-10.61-4.98-15.9-7.05q-2.84,7.05-3.58,33.89c-2.45-.35-4.9-.7-7.05-1.05-1.07,9.19,2.15,20.83,5.33,32.87l-5.33.69c1.45,7.78,2.87,15.86,4.28,24.04-13.45.7-21.93-4.6-28.99-4.6-1.07,30.73,8.17,46.64,12.38,75.23h-5.32c.37,4.27,1.11,8.51,1.78,12.75h3.54c1.75,5.31,3.54,10.58,5.26,15.9-3.52-.69-7.03-1.42-10.58-1.78v-3.54c-17.32-9.55-19.78-11.62-35.36-10.58-2.47-9.93-13.02-14.15-17.68-14.51l-1.01,3.92c-19.78,1.74-27.59-13.81-38.12-13.81l-1.83,6.35q-14.09-11.65-21.2-14.11c1.07,3.54,2.14,7.04,3.58,10.6-4.6-1.78-12.38-9.91-22.95-15.92v5.32c-4.3-2.47-8.52-4.97-12.4-7.07v-3.54c-19.06,1.78-20.87-12.35-37.07-12.35v5.27h3.54c-.37,2.84-.71,5.68-1.08,8.85q15.19,12.37,15.19,15.87h-3.54c4.26,11.3,14.16,16.26,16.66,33.91l4.56,1.78-1.09,3.54c7.04,13.8,9.88,24.41,29.36,30.03v3.54c-3.2,0-6.05.36-8.88.69.37,2.5,1.09,5.36,1.79,8.16l3.54.7c2.14,6.33.36,9.88,12.38,11.63v5.33c3.82,1.07,8.09,2.12,12.33,3.54v3.53h-7.06l.71,5.31q17.34,13.08,31.47,20.15c1.4,15.18-18.71,15.18-28.65,18.71,3.54,10.91,34.31,33.57,51.6,37.45v3.55q10.6,2.46,24.75,0v3.51c-3.53.35-7.08,1.05-10.6,1.75v7.09c8.12,2.13,16.23,4.59,24.72,7.06.39,2.46,1.07,4.91,1.77,7.8,8.83,3.14,17.66,6.31,26.51,9.84v5.31c2.46.37,4.96,1.09,7.78,1.81-.37,2.78-.72,5.61-.72,8.8-6.39,1.77-9.89,7.07-15.92,8.84v5.28h-7.06c0,2.14.37,4.61.73,7.09-3.57,1.77-7.1,3.5-10.63,5.28v7.01c-7.42,3.93-11.65,2.9-13.03,12.4,15.86.37,27.15-2.12,44.1-3.52,0,3.52-3.52,4.22-5.25,9.15,7.06-2.06,14.14-3.84,21.2-5.63v-3.52h5.27c-.7,2.82-1.42,6.02-1.75,9.15q21.53-6.7,33.88-12.71v5.33c21.21-13.41,26.54-21.18,30.09-21.18.33,5.29,1.03,10.53,1.75,15.85,25.45-10.57,55.07-31.05,60.08-60.06l5.95,1.78c15.47,40.7,89,124.31,119.33,149.23,2.27,2.34,13.32,14.54,14.59,22.5l2.51-1.77c4.82-12.95-23.02-31.4-32.25-41.25-58.44-54.78-88.42-99.25-97.8-133.97h3.52c24.47,66.84,95.94,132.21,129.61,157.76,9.99,7.71,23.05,14.19,10.36,32.3l3.53,3.54c5.13-7.48,7.2-16.18,5.99-20.11-1.04-8-8.57-12.21-18.4-20.48-44.37-31.69-116.15-100.47-125.76-160.07,9.22.66,9.22,1.03,19.75,9.5,8.19,2.12,69.28,1.04,35.38-.76v-3.46c3.53-.38,16.59-2.5,7.05-3.54v-3.54c4.61,0,9.17.4,14.11.7l1.79-4.26c6-.32,15.92.72,21.18-4.6-4.24-1.04-8.45-1.77-12.31-2.45v-3.56q15.85-2.8,27.17-8.8v-7.09c29.33-15.87,30.04-19.45,35.02-21.19l1.69-18.01c.53-2.82,1.01-5.59,1.61-8.28l26.86-14.94c1.46-5.84,3.21-11.35,5.47-16.09l-5.14-3.55c-3.19,1.64-6.59,3.03-9.99,4.45l-2.2-2.74c5.35-5.71,10.75-11.39,15.65-17.21-1.77-2.19-3.54-4.38-5.53-6.83,4.03-4.61,7.99-9.21,11.49-13.86l-4.45-5.51c3.65-3.34,6.8-6.79,9.94-10.22l-3.61-6.18q-9.64,1-11.87-1.76c14.03-13.58,19.74-22.25,27.73-38.27M493.72,643.13l-3.33,2.67c.73,17.54,16.7,15.26,16.7,15.26l-2.42-4.05c-11.92,1.23-10.95-13.88-10.95-13.88"/>
  </g>
</svg>