<svg aria-hidden="true" style="position: absolute; width: 0; height: 0; overflow: hidden;" version="1.1" xmlns="http://www.w3.org/2000/svg" xmlns:xlink="http://www.w3.org/1999/xlink">
<defs>
<symbol id="icon-abt-logo" viewBox="0 0 29 32">
<path d="M27.997 11.936c-0.621-0.772 1.1-1.169 0.659-2.507l-0.28 0.335c-0.081-0.155-0.161-0.31-0.258-0.454-0.367 0.499-0.748 0.978-1.128 1.46l-0.106-0.133 0.133-0.107-0.162-0.2c-0.13 0.193-0.284 0.383-0.439 0.573l-0.161-0.198c-0.226 0.291-0.466 0.595-0.703 0.897l-0.111-0.135 0.135-0.107-0.161-0.199c-0.133 0.19-0.271 0.381-0.41 0.573l0.201-1.969c0.082-0.409 0.169-0.802 0.256-1.196-0.191 0-0.462 0.291-0.701 0.341l-0.053-0.254-0.204 0.083c0.085-0.238 0.171-0.461 0.257-0.684h-0.257c0.085-0.324 0.171-0.633 0.257-0.939h-0.257v0.171h-0.173c0.086-0.377 0.173-0.753 0.258-1.111h-0.258c0.052-0.241 0.104-0.479 0.173-0.702h-0.258v0.171h-0.172c0.137-0.598 0.273-1.196 0.43-1.795-0.173 0.017-0.343 0.051-0.515 0.086 0.018-0.154 0.053-0.292 0.085-0.428-1.317 0.495-0.545 2.087-1.538 2.087-0.36 0.787-0.514 1.266-0.599 2.207q-0.172 0-0.427-0.394c-0.121 0.016-0.24 0.034-0.342 0.052-0.035 0.222-0.069 0.444-0.084 0.683h-0.343c-0.068 0.273-0.121 0.564-0.173 0.854h-0.426c-0.070 0.361-0.12 0.737-0.172 1.114h-0.171c-0.050-0.172-0.102-0.344-0.137-0.514l-0.289-0.086c-0.48 1.009-1.83 2.069-1.984 2.992h-0.171c-0.307-1.538 0.546-1.914 0.546-2.736-0.152-0.033-0.308-0.067-0.461-0.085 0-0.324 0.016-0.633 0.034-0.941l-0.205 0.086c0.205-0.888-0.102-1.333-0.139-2.053l-0.203-0.085c-0.037 0.341-0.072 0.684-0.088 1.027-0.255 0.031-0.938 0.376-1.111 0.376q-0.052-0.633 0.086-2.344h-0.343q0.121-0.36 0.121-0.872l-0.206-0.085q-0.051-0.685-0.169-0.736c-0.41 0.325-0.601 0.788-1.112 0.906 0.016-0.342 0.050-0.683 0.085-1.025h-0.257v-0.565c-0.154 0.017-0.291 0.035-0.427 0.052 0.016-0.378 0.053-0.753 0.086-1.113h-0.341c-0.036-0.341-0.070-0.666-0.089-0.992-0.527-0.324-0.547-0.905-0.682-1.315h-0.172v1.283h-0.17v1.197h-0.343v1.197c-0.119-0.035-0.24-0.069-0.356-0.086v0.512h-0.258v0.942c-0.258-0.121-0.514-0.241-0.77-0.341q-0.137 0.341-0.173 1.64c-0.119-0.017-0.237-0.034-0.341-0.051-0.052 0.445 0.104 1.008 0.258 1.591l-0.258 0.033c0.070 0.377 0.139 0.768 0.207 1.164-0.651 0.034-1.061-0.223-1.403-0.223-0.052 1.487 0.395 2.257 0.599 3.641h-0.258c0.018 0.207 0.054 0.412 0.086 0.617h0.171c0.085 0.257 0.171 0.512 0.255 0.77-0.17-0.033-0.34-0.069-0.512-0.086v-0.171c-0.838-0.462-0.957-0.562-1.711-0.512-0.12-0.481-0.63-0.685-0.856-0.702l-0.049 0.19c-0.957 0.084-1.335-0.668-1.845-0.668l-0.089 0.307q-0.682-0.564-1.026-0.683c0.052 0.171 0.104 0.341 0.173 0.513-0.223-0.086-0.599-0.48-1.111-0.771v0.258c-0.208-0.12-0.412-0.241-0.6-0.342v-0.171c-0.922 0.086-1.010-0.598-1.794-0.598v0.255h0.171c-0.018 0.137-0.034 0.275-0.052 0.428q0.735 0.599 0.735 0.768h-0.171c0.206 0.547 0.685 0.787 0.806 1.641l0.221 0.086-0.053 0.171c0.341 0.668 0.478 1.181 1.421 1.453v0.171c-0.155 0-0.293 0.017-0.43 0.033 0.018 0.121 0.053 0.259 0.087 0.395l0.171 0.034c0.104 0.306 0.017 0.478 0.599 0.563v0.258c0.185 0.052 0.392 0.103 0.597 0.171v0.171h-0.342l0.034 0.257q0.839 0.633 1.523 0.975c0.068 0.735-0.906 0.735-1.387 0.906 0.171 0.528 1.661 1.625 2.497 1.813v0.172q0.513 0.119 1.198 0v0.17c-0.171 0.017-0.343 0.051-0.513 0.085v0.343c0.393 0.103 0.786 0.222 1.196 0.342 0.019 0.119 0.052 0.238 0.086 0.378 0.427 0.152 0.855 0.305 1.283 0.476v0.257c0.119 0.018 0.24 0.053 0.377 0.088-0.018 0.135-0.035 0.272-0.035 0.426-0.309 0.086-0.479 0.342-0.771 0.428v0.256h-0.342c0 0.104 0.018 0.223 0.035 0.343-0.173 0.086-0.344 0.169-0.514 0.256v0.339c-0.359 0.19-0.564 0.14-0.631 0.6 0.768 0.018 1.314-0.103 2.134-0.17 0 0.17-0.17 0.204-0.254 0.443 0.342-0.1 0.684-0.186 1.026-0.273v-0.17h0.255c-0.034 0.137-0.069 0.291-0.085 0.443q1.042-0.324 1.64-0.615v0.258c1.027-0.649 1.285-1.025 1.456-1.025 0.016 0.256 0.050 0.51 0.085 0.767 1.232-0.512 2.665-1.503 2.908-2.907l0.288 0.086c0.749 1.97 4.308 6.017 5.776 7.223 0.11 0.113 0.645 0.704 0.706 1.089l0.121-0.086c0.233-0.627-1.114-1.52-1.561-1.997-2.828-2.651-4.279-4.804-4.733-6.484h0.17c1.184 3.235 4.643 6.399 6.273 7.636 0.483 0.373 1.116 0.687 0.501 1.563l0.171 0.171c0.248-0.362 0.348-0.783 0.29-0.973-0.050-0.387-0.415-0.591-0.891-0.991-2.148-1.534-5.622-4.863-6.087-7.747 0.446 0.032 0.446 0.050 0.956 0.46 0.396 0.103 3.353 0.050 1.712-0.037v-0.167c0.171-0.018 0.803-0.121 0.341-0.171v-0.171c0.223 0 0.444 0.019 0.683 0.034l0.087-0.206c0.29-0.015 0.771 0.035 1.025-0.223-0.205-0.050-0.409-0.086-0.596-0.119v-0.172q0.767-0.136 1.315-0.426v-0.343c1.42-0.768 1.454-0.941 1.695-1.026l0.082-0.872c0.026-0.137 0.049-0.271 0.078-0.401l1.3-0.723c0.071-0.283 0.155-0.549 0.265-0.779l-0.249-0.172c-0.154 0.079-0.319 0.147-0.483 0.215l-0.106-0.133c0.259-0.276 0.52-0.551 0.757-0.833-0.086-0.106-0.171-0.212-0.268-0.331 0.195-0.223 0.387-0.446 0.556-0.671l-0.215-0.267c0.177-0.162 0.329-0.329 0.481-0.495l-0.175-0.299q-0.467 0.048-0.575-0.085c0.679-0.657 0.955-1.077 1.342-1.852zM23.896 31.127l-0.161 0.129c0.035 0.849 0.808 0.739 0.808 0.739l-0.117-0.196c-0.577 0.060-0.53-0.672-0.53-0.672z"></path>
</symbol>
</defs>
</svg>
