<svg aria-hidden="true" style="position: absolute; width: 0; height: 0; overflow: hidden;" version="1.1" xmlns="http://www.w3.org/2000/svg" xmlns:xlink="http://www.w3.org/1999/xlink">
<defs>
<symbol id="icon-leaf" viewBox="0 0 34 32">
<path d="M14.531 0.855c0.053 0.018 0.106 0.035 0.16 0.053 0.057 0.124 0.057 0.124 0.107 0.28 0.101 0.313 0.213 0.531 0.461 0.748 0.255 0.278 0.227 0.605 0.23 0.963-0.006 0.196-0.006 0.196 0.057 0.36 0.044 0.030 0.089 0.059 0.134 0.090 0.155 0.145 0.165 0.231 0.173 0.439 0 0.038 0 0.076 0 0.116 0.003 0.296 0.003 0.296 0.067 0.584 0.050 0.020 0.099 0.040 0.15 0.060 0.214 0.126 0.252 0.24 0.338 0.466 0.046 0.128 0.046 0.128 0.153 0.275 0.016 0.147 0.027 0.29 0.033 0.437 0.002 0.040 0.004 0.080 0.006 0.121 0.005 0.099 0.009 0.197 0.014 0.296 0.123 0.041 0.123 0.041 0.267 0.053 0.11-0.061 0.11-0.061 0.204-0.16 0.036-0.034 0.072-0.068 0.11-0.104 0.038-0.036 0.075-0.073 0.114-0.11 0.080-0.071 0.16-0.141 0.24-0.21 0.036-0.031 0.072-0.063 0.108-0.095 0.039-0.034 0.039-0.034 0.078-0.069 0.142 0.123 0.192 0.225 0.244 0.404 0.056 0.192 0.056 0.192 0.184 0.344 0.008 0.103 0.008 0.103 0.001 0.227-0.002 0.067-0.002 0.067-0.005 0.136-0.004 0.094-0.009 0.189-0.015 0.283-0.004 0.128-0.006 0.244 0.018 0.37 0.129 0.096 0.129 0.096 0.267 0.16 0.028 0.14 0.028 0.14 0.020 0.297-0.002 0.052-0.004 0.104-0.005 0.157-0.015 0.133-0.015 0.133-0.068 0.24-0.013 0.235-0.012 0.471-0.013 0.707-0.001 0.117-0.002 0.234-0.004 0.352-0 0.074-0.001 0.149-0.001 0.223-0.001 0.102-0.001 0.102-0.002 0.206 0.004 0.168 0.004 0.168 0.1 0.272 0.026 0.019 0.052 0.037 0.079 0.057 0.367-0.091 0.738-0.184 1.068-0.374 0.093-0.186 0.069-0.413 0.072-0.619 0.005-0.107 0.005-0.107 0.035-0.289 0.109-0.078 0.109-0.078 0.214-0.107 0.082 0.082 0.082 0.174 0.104 0.287 0.009 0.047 0.018 0.095 0.028 0.143 0.009 0.050 0.019 0.1 0.029 0.151 0.019 0.098 0.038 0.196 0.057 0.293 0.008 0.044 0.017 0.087 0.025 0.132 0.025 0.124 0.025 0.124 0.078 0.276 0.014 0.193 0.024 0.386 0.032 0.579 0.009 0.174 0.019 0.323 0.075 0.489 0.014 0.172 0.024 0.343 0.032 0.515 0.009 0.203 0.009 0.203 0.075 0.393 0.106 0.056 0.212 0.11 0.321 0.16 0.065 0.455-0.12 0.761-0.329 1.15-0.119 0.223-0.159 0.37-0.157 0.619 0 0.079 0 0.079 0.001 0.159 0 0.055 0.001 0.109 0.001 0.166 0 0.083 0 0.083 0.001 0.168 0.001 0.137 0.002 0.273 0.003 0.41 0.493-0.185 0.745-0.653 1.022-1.080 0.105-0.157 0.219-0.296 0.345-0.436 0.11-0.126 0.206-0.26 0.305-0.394 0.147-0.193 0.305-0.377 0.463-0.563 0.116-0.143 0.116-0.143 0.194-0.32 0.076-0.146 0.076-0.146 0.236-0.199 0.186 0.105 0.277 0.239 0.374 0.427 0 0.035 0 0.071 0 0.107 0.053 0 0.106 0 0.16 0 0.104-0.268 0.142-0.534 0.178-0.817 0.038-0.156 0.069-0.209 0.196-0.305 0.054-0.025 0.108-0.051 0.164-0.077 0.173-0.092 0.195-0.123 0.264-0.297 0.014-0.079 0.026-0.158 0.037-0.237 0.044-0.223 0.044-0.223 0.156-0.314 0.033-0.019 0.067-0.038 0.101-0.057 0.146-0.085 0.181-0.123 0.235-0.287 0.026-0.147 0.046-0.292 0.059-0.441 0.177-0.037 0.177-0.037 0.374-0.053 0.104 0.070 0.104 0.070 0.16 0.16 0 0.035 0 0.071 0 0.107 0.157-0.014 0.157-0.014 0.321-0.053 0.114-0.171 0.119-0.224 0.128-0.421 0.027-0.357 0.125-0.676 0.236-1.015 0.018-0.059 0.037-0.118 0.056-0.178 0.147-0.454 0.298-0.686 0.702-0.95 0.249-0.227 0.32-0.363 0.337-0.694 0.042-0.477 0.165-0.891 0.532-1.215 0.129-0.094 0.198-0.137 0.359-0.121 0.167 0.124 0.167 0.124 0.321 0.267 0.053 0.035 0.106 0.071 0.16 0.107 0.026 0.271-0.023 0.485-0.107 0.741-0.091 0.304-0.148 0.546-0.107 0.861 0.036 0.025 0.071 0.051 0.108 0.077 0.105 0.083 0.105 0.083 0.121 0.201-0.004 0.044-0.008 0.088-0.012 0.133-0.009 0.195 0.001 0.323 0.083 0.501 0.093 0.214 0.057 0.354-0.003 0.575-0.045 0.172-0.055 0.315-0.030 0.49 0.127 0.107 0.127 0.107 0.267 0.16-0.009 0.049-0.017 0.099-0.026 0.15-0.039 0.272-0.037 0.544-0.037 0.818-0.001 0.052-0.001 0.104-0.002 0.158-0 0.050-0 0.101-0 0.153-0 0.068-0 0.068-0.001 0.138 0.015 0.149 0.059 0.264 0.12 0.399 0.209 0.019 0.294 0.021 0.464-0.11 0.041-0.034 0.082-0.068 0.124-0.104 0.053 0.018 0.106 0.035 0.16 0.053 0.015 0.256-0.003 0.459-0.077 0.704-0.085 0.285-0.111 0.557-0.126 0.853-0.011 0.152-0.011 0.152-0.038 0.252-0.030 0.13-0.032 0.247-0.032 0.38 0 0.050 0 0.1 0.001 0.151s0.001 0.103 0.001 0.157c0 0.079 0 0.079 0.001 0.159 0.001 0.129 0.002 0.259 0.003 0.388 0.050-0.002 0.099-0.004 0.15-0.007 0.17 0.007 0.17 0.007 0.331 0.114 0.13 0.016 0.13 0.016 0.267-0.053 0.088-0.102 0.165-0.21 0.242-0.321 0.177-0.24 0.404-0.352 0.666-0.481 0.050-0.045 0.050-0.045 0.1-0.090 0.114-0.070 0.114-0.070 0.307-0.050 0.226 0.008 0.334-0.076 0.504-0.22 0.243-0.235 0.406-0.49 0.564-0.788 0.073-0.134 0.073-0.134 0.18-0.241 0.189 0.029 0.189 0.029 0.267 0.107 0.081 0.004 0.163 0.004 0.244 0.003 0.044-0 0.088-0.001 0.134-0.001 0.034-0.001 0.068-0.001 0.103-0.002 0.106 0.212 0.076 0.464 0.053 0.694-0.105 0.248-0.254 0.424-0.424 0.631-0.313 0.385-0.537 0.732-0.484 1.239 0.011 0.035 0.022 0.071 0.033 0.107 0.037 0.198-0.098 0.367-0.193 0.534-0.036 0.065-0.036 0.065-0.073 0.131-0.155 0.271-0.325 0.503-0.537 0.733-0.114 0.13-0.204 0.273-0.299 0.417-0.040 0.037-0.079 0.075-0.12 0.114-0.118 0.103-0.118 0.103-0.093 0.314 0.047 0.004 0.095 0.009 0.144 0.013 0.199 0.045 0.295 0.118 0.444 0.254-0.017 0.195-0.038 0.254-0.19 0.384-0.142 0.132-0.142 0.132-0.135 0.265 0.004 0.044 0.007 0.087 0.011 0.132 0.020 0.318-0.117 0.492-0.304 0.739-0.090 0.13-0.090 0.13-0.065 0.27 0.014 0.044 0.027 0.088 0.042 0.133 0.040 0.137 0.040 0.137 0.053 0.267-0.067 0.108-0.067 0.108-0.167 0.21-0.034 0.037-0.069 0.073-0.104 0.111-0.051 0.053-0.051 0.053-0.103 0.106-0.218 0.227-0.218 0.227-0.267 0.534 0.062-0.008 0.062-0.008 0.125-0.015 0.054-0.006 0.107-0.012 0.162-0.018 0.053-0.006 0.107-0.012 0.162-0.019 0.046-0 0.092-0.001 0.139-0.001 0.035 0.035 0.071 0.071 0.107 0.107-0.008 0.133-0.025 0.245-0.053 0.374-0.012 0.060-0.012 0.060-0.025 0.122-0.016 0.062-0.016 0.062-0.032 0.125-0.009 0.038-0.019 0.076-0.029 0.116-0.217 0.342-0.743 0.515-1.094 0.694-0.039 0.020-0.077 0.040-0.117 0.061-0.052 0.026-0.052 0.026-0.105 0.053-0.171 0.105-0.244 0.186-0.308 0.379-0.008 0.098-0.015 0.196-0.020 0.294-0.064 0.793-0.064 0.793-0.307 1.058-0.076 0.045-0.076 0.045-0.154 0.090-0.066 0.046-0.131 0.091-0.197 0.137-0.375 0.248-0.762 0.478-1.147 0.71-0.183 0.113-0.267 0.167-0.336 0.368-0.171 0.363-0.572 0.471-0.927 0.603-0.11 0.037-0.221 0.072-0.332 0.105 0 0.035 0 0.071 0 0.107 0.105 0.074 0.212 0.146 0.321 0.214-0.035 0.053-0.071 0.106-0.107 0.16-0.165 0.022-0.165 0.022-0.364 0.027-0.277 0.007-0.418 0.043-0.651 0.187-0.165 0.026-0.165 0.026-0.341 0.040-0.308 0.041-0.459 0.111-0.659 0.347-0.053 0.073-0.105 0.146-0.155 0.22-0.103 0.121-0.185 0.117-0.341 0.14-0.201 0.011-0.403 0.010-0.604 0.010-0.054 0.001-0.108 0.001-0.163 0.002-0.734 0.001-0.734 0.001-1.022-0.223-0.036-0.038-0.073-0.077-0.11-0.116-0.194-0.19-0.194-0.19-0.451-0.237-0.153 0.013-0.153 0.013-0.214 0.083-0.012 0.204-0.003 0.364 0.053 0.561 0.057 0.2 0.073 0.355 0.053 0.561-0.067 0.093-0.067 0.093-0.16 0.16-0.034 0.031-0.068 0.062-0.104 0.093-0.11 0.067-0.11 0.067-0.217 0.067-0.249-0.125-0.338-0.358-0.444-0.601-0.062-0.14-0.062-0.14-0.144-0.254-0.196-0.070-0.196-0.070-0.374-0.053-0.007 0.035-0.014 0.070-0.022 0.106-0.229 0.971-0.965 1.786-1.801 2.311-0.045 0.025-0.090 0.051-0.137 0.077-0.126 0.071-0.234 0.151-0.347 0.24-0.252 0.192-0.493 0.346-0.811 0.387-0.046-0.008-0.093-0.015-0.14-0.023-0.123-0.184-0.136-0.317-0.16-0.534-0.12-0.051-0.12-0.051-0.267-0.053-0.091 0.087-0.18 0.176-0.267 0.267-0.106 0.085-0.214 0.169-0.324 0.25-0.055 0.041-0.109 0.082-0.165 0.124-0.235 0.164-0.352 0.225-0.639 0.203-0.288-0.006-0.46 0.064-0.708 0.203-0.308 0.162-0.646 0.287-0.995 0.287-0.053-0.106-0.106-0.212-0.16-0.321-0.148 0.021-0.246 0.036-0.364 0.13-0.211 0.151-0.448 0.202-0.704 0.17-0.035-0.011-0.071-0.022-0.107-0.033-0.018-0.071-0.035-0.141-0.053-0.214-0.193-0.002-0.385-0.003-0.578-0.003-0.055-0-0.109-0.001-0.166-0.001-0.053-0-0.105-0-0.159-0.001-0.048-0-0.097-0.001-0.147-0.001-0.134 0.001-0.134 0.001-0.286 0.059-0.124 0.008-0.249 0.012-0.374 0.013-0.066 0.001-0.132 0.003-0.2 0.004-0.174-0.018-0.174-0.018-0.277-0.099-0.019-0.026-0.037-0.052-0.057-0.079 0.068-0.203 0.124-0.207 0.311-0.3 0.264-0.15 0.346-0.276 0.445-0.556 0.065-0.15 0.172-0.186 0.313-0.265 0.070-0.099 0.070-0.099 0.134-0.214 0.11-0.19 0.205-0.269 0.401-0.374 0.030-0.040 0.059-0.079 0.090-0.12 0.156-0.185 0.336-0.298 0.538-0.428 0.125-0.097 0.175-0.159 0.227-0.307 0.004-0.163 0.004-0.163-0.053-0.321-0.12-0.115-0.12-0.115-0.267-0.214-0.038-0.043-0.077-0.087-0.116-0.131-0.184-0.166-0.339-0.212-0.575-0.273-0.286-0.076-0.516-0.154-0.751-0.344-0.056-0.105-0.056-0.105-0.094-0.21-0.101-0.181-0.203-0.237-0.395-0.298-0.17-0.048-0.341-0.088-0.513-0.127-0.189-0.045-0.34-0.096-0.494-0.219-0.040-0.102-0.040-0.102-0.060-0.21-0.032-0.117-0.032-0.117-0.1-0.217-0.145-0.074-0.288-0.118-0.444-0.164-0.192-0.066-0.31-0.187-0.465-0.316-0.097-0.043-0.195-0.082-0.294-0.12-0.546-0.215-1.040-0.55-1.469-0.948-0.072-0.062-0.145-0.125-0.217-0.187-0.070-0.062-0.14-0.125-0.21-0.187-0.033-0.029-0.066-0.058-0.1-0.087-0.090-0.083-0.090-0.083-0.22-0.233 0.007-0.148 0.041-0.201 0.146-0.305 0.139-0.080 0.239-0.094 0.398-0.109 0.335-0.054 0.561-0.193 0.791-0.441 0.087-0.172 0.087-0.172 0.107-0.321-0.168-0.187-0.343-0.293-0.564-0.411-0.351-0.195-0.723-0.402-0.985-0.711-0.053-0.232-0.063-0.412 0-0.641-0.071-0.018-0.071-0.018-0.144-0.037-0.205-0.081-0.292-0.178-0.444-0.337-0.071-0.050-0.142-0.099-0.214-0.147-0.207-0.151-0.311-0.311-0.422-0.54-0.056-0.119-0.056-0.119-0.15-0.226-0.034-0.051-0.034-0.051-0.070-0.102 0.018-0.053 0.035-0.106 0.053-0.16 0.044-0.017 0.088-0.033 0.134-0.050 0.044-0.019 0.088-0.037 0.134-0.057 0.047-0.109 0.047-0.109 0.053-0.214-0.051-0.008-0.101-0.015-0.154-0.023-0.453-0.129-0.856-0.622-1.129-0.992-0.128-0.243-0.187-0.473-0.228-0.742-0.051-0.148-0.143-0.217-0.252-0.327-0.051-0.123-0.051-0.123-0.090-0.26-0.147-0.436-0.411-0.837-0.7-1.193-0.064-0.096-0.064-0.096-0.051-0.269-0.020-0.294-0.186-0.425-0.387-0.628-0.213-0.231-0.347-0.497-0.427-0.801 0.021-0.123 0.021-0.123 0.053-0.214 0.248 0.027 0.4 0.089 0.604 0.23 0.341 0.225 0.664 0.381 1.058 0.484 0.194 0.053 0.3 0.111 0.441 0.254 0.166 0.161 0.279 0.17 0.507 0.174 0.275 0.007 0.392 0.060 0.591 0.25 0.036 0.039 0.071 0.078 0.108 0.119 0.103 0.104 0.103 0.104 0.25 0.111 0.136-0.008 0.136-0.008 0.223-0.127 0.031-0.053 0.031-0.053 0.063-0.107 0.284 0.044 0.491 0.227 0.694 0.417 0.151 0.136 0.151 0.136 0.337 0.11 0.138-0.033 0.138-0.033 0.197-0.1 0.209-0.019 0.323 0.015 0.498 0.127 0.042 0.026 0.084 0.053 0.127 0.080s0.086 0.056 0.13 0.084c0.086 0.055 0.172 0.109 0.258 0.163 0.038 0.024 0.075 0.049 0.114 0.074 0.177 0.104 0.325 0.122 0.526 0.123 0.046 0.001 0.091 0.002 0.138 0.002 0.141-0.013 0.223-0.053 0.346-0.119 0.316 0 0.522 0.171 0.748 0.374 0.049 0.058 0.097 0.117 0.144 0.177 0.108 0.148 0.108 0.148 0.244 0.19 0.14 0.009 0.14 0.009 0.25 0.001 0.507-0.021 0.996 0.169 1.393 0.486 0.036 0.050 0.073 0.099 0.11 0.15 0.1 0.14 0.1 0.14 0.304 0.134 0.057-0.006 0.115-0.011 0.174-0.017-0.016-0.353-0.063-0.597-0.321-0.855-0.005-0.094-0.007-0.189-0.007-0.284-0-0.052-0-0.103-0-0.156 0.006-0.131 0.026-0.236 0.061-0.361 0.036-0.429-0.073-0.809-0.183-1.219-0.133-0.506-0.251-1.014-0.33-1.531-0.014-0.089-0.031-0.177-0.050-0.265-0.028-0.156-0.034-0.305-0.035-0.464-0.001-0.055-0.002-0.11-0.002-0.167 0.012-0.146 0.012-0.146 0.119-0.307 0.236 0.026 0.466 0.060 0.698 0.11 0.219 0.046 0.415 0.060 0.638 0.050 0.095-0.162 0.117-0.259 0.090-0.444-0.005-0.042-0.011-0.084-0.017-0.127-0.017-0.106-0.040-0.212-0.063-0.317-0.010-0.18-0.010-0.18 0.102-0.353 0.1-0.167 0.102-0.195 0.076-0.402-0.021-0.070-0.044-0.14-0.068-0.21-0.114-0.387-0.221-0.806-0.079-1.2 0.066-0.099 0.066-0.099 0.175-0.169 0.115-0.081 0.115-0.081 0.131-0.21 0-0.046 0-0.092 0-0.139 0.001-0.051 0.002-0.102 0.003-0.154 0-0.080 0-0.080 0-0.161 0.002-0.363 0.005-0.652 0.184-0.975 0.097-0.060 0.097-0.060 0.214-0.053 0.107 0.053 0.214 0.106 0.321 0.16 0.147 0.013 0.147 0.013 0.267 0 0.073-0.147 0.059-0.273 0.063-0.437 0.029-0.406 0.163-0.553 0.45-0.817 0.218-0.222 0.266-0.38 0.266-0.689-0.002-0.046-0.003-0.092-0.005-0.14-0.016-0.474-0.016-0.474 0.099-0.635 0.058-0.061 0.117-0.121 0.176-0.181 0.129-0.164 0.111-0.339 0.106-0.54 0.006-0.482 0.006-0.482 0.13-0.698 0.169-0.306 0.116-0.663 0.106-1.001-0.002-0.204-0.002-0.204 0.051-0.311z"></path>
<path d="M29.275 13.676c0.159 0.026 0.159 0.026 0.321 0.053-0.086 0.109-0.176 0.216-0.267 0.321-0.035 0-0.071 0-0.107 0 0.018-0.123 0.035-0.247 0.053-0.374z"></path>
<path d="M28.154 6.518c0.018 0 0.035 0 0.053 0 0.019 0.078 0.038 0.156 0.057 0.234 0.016 0.065 0.016 0.065 0.032 0.131 0.018 0.116 0.018 0.116-0.035 0.222-0.035 0-0.071 0-0.107 0 0-0.194 0-0.388 0-0.588z"></path>
</symbol>
<symbol id="icon-menu" viewBox="0 0 32 32">
<path d="M2 6h28v6h-28zM2 14h28v6h-28zM2 22h28v6h-28z"></path>
</symbol>
<symbol id="icon-cross" viewBox="0 0 32 32">
<path d="M31.708 25.708c-0-0-0-0-0-0l-9.708-9.708 9.708-9.708c0-0 0-0 0-0 0.105-0.105 0.18-0.227 0.229-0.357 0.133-0.356 0.057-0.771-0.229-1.057l-4.586-4.586c-0.286-0.286-0.702-0.361-1.057-0.229-0.13 0.048-0.252 0.124-0.357 0.228 0 0-0 0-0 0l-9.708 9.708-9.708-9.708c-0-0-0-0-0-0-0.105-0.104-0.227-0.18-0.357-0.228-0.356-0.133-0.771-0.057-1.057 0.229l-4.586 4.586c-0.286 0.286-0.361 0.702-0.229 1.057 0.049 0.13 0.124 0.252 0.229 0.357 0 0 0 0 0 0l9.708 9.708-9.708 9.708c-0 0-0 0-0 0-0.104 0.105-0.18 0.227-0.229 0.357-0.133 0.355-0.057 0.771 0.229 1.057l4.586 4.586c0.286 0.286 0.702 0.361 1.057 0.229 0.13-0.049 0.252-0.124 0.357-0.229 0-0 0-0 0-0l9.708-9.708 9.708 9.708c0 0 0 0 0 0 0.105 0.105 0.227 0.18 0.357 0.229 0.356 0.133 0.771 0.057 1.057-0.229l4.586-4.586c0.286-0.286 0.362-0.702 0.229-1.057-0.049-0.13-0.124-0.252-0.229-0.357z"></path>
</symbol>
<symbol id="icon-play3" viewBox="0 0 32 32">
<path d="M6 4l20 12-20 12z"></path>
</symbol>
<symbol id="icon-arrow-right" viewBox="0 0 32 32">
<path d="M31 16l-15-15v9h-16v12h16v9z"></path>
</symbol>
<symbol id="icon-circle-right" viewBox="0 0 32 32">
<path d="M16 0c-8.837 0-16 7.163-16 16s7.163 16 16 16 16-7.163 16-16-7.163-16-16-16zM16 29c-7.18 0-13-5.82-13-13s5.82-13 13-13 13 5.82 13 13-5.82 13-13 13z"></path>
<path d="M11.086 22.086l2.829 2.829 8.914-8.914-8.914-8.914-2.828 2.828 6.086 6.086z"></path>
</symbol>
<symbol id="icon-circle-down" viewBox="0 0 32 32">
<path d="M32 16c0-8.837-7.163-16-16-16s-16 7.163-16 16 7.163 16 16 16 16-7.163 16-16zM3 16c0-7.18 5.82-13 13-13s13 5.82 13 13-5.82 13-13 13-13-5.82-13-13z"></path>
<path d="M9.914 11.086l-2.829 2.829 8.914 8.914 8.914-8.914-2.828-2.828-6.086 6.086z"></path>
</symbol>
<symbol id="icon-facebook2" viewBox="0 0 32 32">
<path d="M29 0h-26c-1.65 0-3 1.35-3 3v26c0 1.65 1.35 3 3 3h13v-14h-4v-4h4v-2c0-3.306 2.694-6 6-6h4v4h-4c-1.1 0-2 0.9-2 2v2h6l-1 4h-5v14h9c1.65 0 3-1.35 3-3v-26c0-1.65-1.35-3-3-3z"></path>
</symbol>
</defs>
</svg>
